<svg width="16" height="16" viewBox="0 0 16 16" fill="none" xmlns="http://www.w3.org/2000/svg">
<path d="M16 7.70671C16 11.9557 12.4112 15.4111 8 15.4111C3.5888 15.4111 0 11.9557 0 7.70671C0 3.45851 3.5888 0.00231934 8 0.00231934C12.4112 0.00231934 16 3.45851 16 7.70671Z" fill="#6042DD"/>
<path d="M6.92988 10.5958C6.72785 10.5958 6.52582 10.5202 6.37159 10.3681L4.23134 8.25744C3.92289 7.95325 3.92289 7.4605 4.23134 7.15719C4.5398 6.853 5.03856 6.85211 5.34701 7.15631L6.92988 8.71728L10.653 5.04565C10.9614 4.74146 11.4602 4.74146 11.7687 5.04565C12.0771 5.34984 12.0771 5.84259 11.7687 6.14678L7.48816 10.3681C7.33393 10.5202 7.13191 10.5958 6.92988 10.5958Z" fill="white"/>
</svg>
