<svg width="25" height="24" viewBox="0 0 25 24" fill="none" xmlns="http://www.w3.org/2000/svg">
<path fill-rule="evenodd" clip-rule="evenodd" d="M11.9921 1.00049C14.8889 1.00049 17.6114 2.11749 19.6562 4.14649C23.8831 8.33849 23.8831 15.1585 19.6562 19.3505C17.5841 21.4065 14.7942 22.4945 11.9679 22.4945C10.4272 22.4945 8.87638 22.1715 7.42542 21.5055C6.9979 21.3355 6.5976 21.1755 6.31023 21.1755C5.9795 21.1775 5.53484 21.3295 5.1053 21.4765C4.22403 21.7765 3.12699 22.1505 2.3153 21.3485C1.50664 20.5455 1.87971 19.4605 2.18019 18.5875C2.32841 18.1575 2.48067 17.7135 2.48067 17.3775C2.48067 17.1015 2.34656 16.7495 2.14087 16.2425C0.2523 12.1975 1.1255 7.32249 4.3289 4.14749C6.37375 2.11849 9.09518 1.00049 11.9921 1.00049ZM11.9931 2.50049C9.49951 2.50049 7.15721 3.46249 5.39771 5.20849C2.64099 7.94049 1.8908 12.1355 3.52931 15.6485C3.76525 16.2275 3.99313 16.7915 3.99313 17.3775C3.99313 17.9625 3.79046 18.5515 3.61199 19.0715C3.46478 19.4995 3.24194 20.1455 3.38512 20.2875C3.52528 20.4315 4.18068 20.2045 4.61324 20.0575C5.13252 19.8815 5.72137 19.6795 6.30519 19.6755C6.89001 19.6755 7.44155 19.8955 8.02536 20.1285C11.6018 21.7685 15.8317 21.0225 18.5874 18.2905C22.2234 14.6825 22.2234 8.81349 18.5874 5.20749C16.8269 3.46149 14.4856 2.50049 11.9931 2.50049ZM15.9728 11.1632C16.5294 11.1632 16.9811 11.6102 16.9811 12.1632C16.9811 12.7162 16.5294 13.1632 15.9728 13.1632C15.4162 13.1632 14.9604 12.7162 14.9604 12.1632C14.9604 11.6102 15.4071 11.1632 15.9637 11.1632H15.9728ZM11.9307 11.1632C12.4872 11.1632 12.939 11.6102 12.939 12.1632C12.939 12.7162 12.4872 13.1632 11.9307 13.1632C11.3741 13.1632 10.9183 12.7162 10.9183 12.1632C10.9183 11.6102 11.364 11.1632 11.9216 11.1632H11.9307ZM7.88813 11.1632C8.44472 11.1632 8.89644 11.6102 8.89644 12.1632C8.89644 12.7162 8.44472 13.1632 7.88813 13.1632C7.33155 13.1632 6.87579 12.7162 6.87579 12.1632C6.87579 11.6102 7.32247 11.1632 7.87906 11.1632H7.88813Z" fill="white"/>
</svg>
