<svg width="35" height="35" viewBox="0 0 35 35" fill="none" xmlns="http://www.w3.org/2000/svg">
<path d="M10.2083 17.5C10.2083 18.2736 9.90104 19.0155 9.35406 19.5624C8.80708 20.1094 8.06521 20.4167 7.29167 20.4167C6.51812 20.4167 5.77625 20.1094 5.22927 19.5624C4.68229 19.0155 4.375 18.2736 4.375 17.5C4.375 16.7265 4.68229 15.9846 5.22927 15.4376C5.77625 14.8907 6.51812 14.5834 7.29167 14.5834C8.06521 14.5834 8.80708 14.8907 9.35406 15.4376C9.90104 15.9846 10.2083 16.7265 10.2083 17.5ZM20.4167 17.5C20.4167 18.2736 20.1094 19.0155 19.5624 19.5624C19.0154 20.1094 18.2735 20.4167 17.5 20.4167C16.7265 20.4167 15.9846 20.1094 15.4376 19.5624C14.8906 19.0155 14.5833 18.2736 14.5833 17.5C14.5833 16.7265 14.8906 15.9846 15.4376 15.4376C15.9846 14.8907 16.7265 14.5834 17.5 14.5834C18.2735 14.5834 19.0154 14.8907 19.5624 15.4376C20.1094 15.9846 20.4167 16.7265 20.4167 17.5ZM30.625 17.5C30.625 18.2736 30.3177 19.0155 29.7707 19.5624C29.2237 20.1094 28.4819 20.4167 27.7083 20.4167C26.9348 20.4167 26.1929 20.1094 25.6459 19.5624C25.099 19.0155 24.7917 18.2736 24.7917 17.5C24.7917 16.7265 25.099 15.9846 25.6459 15.4376C26.1929 14.8907 26.9348 14.5834 27.7083 14.5834C28.4819 14.5834 29.2237 14.8907 29.7707 15.4376C30.3177 15.9846 30.625 16.7265 30.625 17.5Z" fill="white"/>
</svg>
