<svg width="55" height="55" viewBox="0 0 55 55" fill="none" xmlns="http://www.w3.org/2000/svg">
<rect x="0.21875" y="0.390137" width="54.5854" height="54.5854" rx="13.6463" fill="#F3F3F3"/>
<path d="M22.7135 40.4054L23.1865 37.401L22.1328 37.3765H17.1016L20.598 15.2065C20.6085 15.1388 20.6429 15.077 20.695 15.0325C20.7471 14.988 20.8135 14.9638 20.882 14.9641H29.3655C32.1819 14.9641 34.1255 15.5502 35.1402 16.7069C35.6159 17.2496 35.9189 17.8167 36.0654 18.4407C36.2192 19.0955 36.2219 19.8778 36.0718 20.832L36.0609 20.9016V21.513L36.5366 21.7825C36.8998 21.9665 37.2263 22.2154 37.4998 22.5169C37.9068 22.9809 38.17 23.5706 38.2813 24.2697C38.3961 24.9887 38.3581 25.8443 38.17 26.8129C37.953 27.9272 37.602 28.8976 37.1281 29.6917C36.71 30.4031 36.1478 31.0192 35.4776 31.5005C34.8481 31.9473 34.1001 32.2865 33.2545 32.5035C32.4351 32.717 31.5008 32.8246 30.4761 32.8246H29.8159C29.3438 32.8246 28.8852 32.9946 28.5253 33.2994C28.1658 33.6075 27.9274 34.0331 27.8524 34.5005L27.8027 34.7709L26.967 40.0663L26.929 40.2607C26.919 40.3222 26.9019 40.353 26.8765 40.3738C26.852 40.3939 26.8214 40.405 26.7897 40.4054H22.7135Z" fill="#253B80"/>
<path d="M36.9826 20.9722C36.9572 21.1341 36.9283 21.2996 36.8957 21.4696C35.777 27.2136 31.9495 29.1979 27.0611 29.1979H24.5721C23.9743 29.1979 23.4705 29.632 23.3774 30.2217L22.1031 38.3036L21.7422 40.5945C21.7278 40.6853 21.7333 40.7782 21.7583 40.8668C21.7833 40.9553 21.8271 41.0374 21.8869 41.1074C21.9466 41.1773 22.0208 41.2335 22.1043 41.2721C22.1879 41.3106 22.2788 41.3306 22.3708 41.3307H26.7852C27.308 41.3307 27.7521 40.9508 27.8344 40.4353L27.8778 40.211L28.7089 34.9364L28.7623 34.647C28.8437 34.1297 29.2887 33.7498 29.8114 33.7498H30.4717C34.7487 33.7498 38.0968 32.0133 39.0754 26.9884C39.4842 24.8892 39.2726 23.1364 38.1909 21.9037C37.848 21.5224 37.4386 21.2067 36.9826 20.9722Z" fill="#179BD7"/>
<path d="M35.8177 20.5056C35.4605 20.4023 35.0971 20.3217 34.7297 20.2642C34.0037 20.1526 33.27 20.0991 32.5355 20.1041H25.8862C25.6332 20.1039 25.3884 20.1942 25.1962 20.3588C25.0039 20.5233 24.8769 20.7512 24.838 21.0013L23.4235 29.9604L23.3828 30.2218C23.4269 29.9366 23.5716 29.6766 23.7907 29.4888C24.0098 29.301 24.289 29.1979 24.5776 29.198H27.0665C31.9549 29.198 35.7824 27.2128 36.9012 21.4698C36.9346 21.2997 36.9627 21.1342 36.988 20.9723C36.6928 20.8175 36.3851 20.6877 36.0682 20.5843C35.9851 20.5568 35.9016 20.5305 35.8177 20.5056Z" fill="#222D65"/>
<path d="M24.8356 21.0011C24.8742 20.751 25.0011 20.523 25.1935 20.3585C25.3858 20.194 25.6308 20.104 25.8839 20.1048H32.5331C33.3209 20.1048 34.0562 20.1564 34.7273 20.2649C35.1814 20.3363 35.6292 20.443 36.0667 20.5842C36.3968 20.6936 36.7034 20.8229 36.9865 20.9722C37.3193 18.8495 36.9838 17.4042 35.8361 16.0955C34.5708 14.6548 32.2871 14.038 29.365 14.038H20.8815C20.2846 14.038 19.7754 14.4721 19.6832 15.0627L16.1496 37.4606C16.1331 37.5646 16.1394 37.6709 16.1679 37.7723C16.1965 37.8736 16.2467 37.9676 16.315 38.0477C16.3833 38.1278 16.4682 38.1921 16.5637 38.2363C16.6593 38.2805 16.7633 38.3034 16.8686 38.3035H22.1061L23.4211 29.9603L24.8356 21.0011Z" fill="#253B80"/>
</svg>
