<svg width="119" height="119" viewBox="0 0 119 119" fill="none" xmlns="http://www.w3.org/2000/svg">
<path d="M59.1066 73.1027C72.0837 73.1027 82.6038 62.5826 82.6038 49.6055C82.6038 36.6283 72.0837 26.1083 59.1066 26.1083C46.1294 26.1083 35.6094 36.6283 35.6094 49.6055C35.6094 62.5826 46.1294 73.1027 59.1066 73.1027Z" stroke="#724EEB" stroke-width="6.27249" stroke-miterlimit="10"/>
<path d="M75.7648 32.9561L42.4648 66.2068" stroke="#724EEB" stroke-width="6.27249" stroke-miterlimit="10"/>
<path d="M92.016 7.29187H26.2042C21.2135 7.29187 16.4272 9.27442 12.8982 12.8034C9.36927 16.3323 7.38672 21.1186 7.38672 26.1093V73.1037C7.38672 78.0944 9.36927 82.8807 12.8982 86.4097C16.4272 89.9386 21.2135 91.9212 26.2042 91.9212H45.0216L59.1101 106.01L73.1986 91.9212H92.016C97.0067 91.9212 101.793 89.9386 105.322 86.4097C108.851 82.8807 110.833 78.0944 110.833 73.1037V26.1093C110.833 21.1186 108.851 16.3323 105.322 12.8034C101.793 9.27442 97.0067 7.29187 92.016 7.29187Z" stroke="#724EEB" stroke-width="6.27249" stroke-miterlimit="10"/>
</svg>
