<svg width="29" height="29" viewBox="0 0 29 29" fill="none" xmlns="http://www.w3.org/2000/svg">
<path d="M27.875 14.0938C27.8799 15.9911 27.4366 17.8627 26.5812 19.5563C25.567 21.5856 24.0077 23.2926 22.0782 24.4858C20.1486 25.6791 17.9249 26.3116 15.6562 26.3125C13.7589 26.3175 11.8873 25.8742 10.1937 25.0188L2 27.75L4.73125 19.5563C3.87584 17.8627 3.43255 15.9911 3.4375 14.0938C3.43838 11.8251 4.07088 9.60138 5.26415 7.67182C6.45743 5.74227 8.16436 4.18304 10.1937 3.16879C11.8873 2.31338 13.7589 1.87009 15.6562 1.87504H16.375C19.3712 2.04034 22.2012 3.30501 24.3231 5.4269C26.445 7.54878 27.7097 10.3788 27.875 13.375V14.0938Z" stroke="white" stroke-width="2.25" stroke-linecap="round" stroke-linejoin="round"/>
</svg>
