<svg width="32" height="31" viewBox="0 0 32 31" fill="none" xmlns="http://www.w3.org/2000/svg">
<path d="M23.2558 0.436833C23.5319 0.461629 23.6526 0.798848 23.4542 0.99556L9.70095 14.7488C9.54558 14.9043 9.43433 15.0982 9.3786 15.3109L7.72557 21.642C7.671 21.8512 7.6721 22.0711 7.72876 22.2797C7.78542 22.4884 7.89567 22.6786 8.04856 22.8315C8.20145 22.9844 8.39168 23.0947 8.60035 23.1513C8.80901 23.208 9.02887 23.2091 9.2381 23.1545L15.5676 21.5015C15.7803 21.4452 15.9743 21.3334 16.1296 21.1775L30.0779 7.22916C30.1216 7.18436 30.1771 7.153 30.238 7.13879C30.2989 7.12458 30.3626 7.12813 30.4216 7.14899C30.4806 7.16986 30.5323 7.20719 30.5707 7.25655C30.6091 7.30591 30.6326 7.36524 30.6383 7.42752C31.2186 12.9646 31.1853 18.5488 30.5391 24.0786C30.1705 27.2276 27.6397 29.6989 24.5022 30.051C18.7557 30.6881 12.9564 30.6881 7.20982 30.051C4.07071 29.6989 1.53991 27.2276 1.17128 24.0786C0.489781 18.2516 0.489781 12.3651 1.17128 6.53819C1.53991 3.3875 4.07071 0.916214 7.20982 0.56577C12.5401 -0.0249303 17.9168 -0.0681348 23.2558 0.436833Z" fill="#724EEB"/>
</svg>
