<svg width="24" height="19" viewBox="0 0 24 19" fill="none" xmlns="http://www.w3.org/2000/svg">
<path d="M7.58483 3.2088L4.32917 2.36874C3.9714 2.2766 3.59043 2.25152 3.21766 2.29556C2.84489 2.3396 2.491 2.45151 2.18514 2.62206C1.87927 2.79261 1.6302 3.01692 1.45845 3.27651C1.2867 3.53609 1.19717 3.82352 1.19727 4.11511V14.9568C1.19715 15.3432 1.35431 15.7198 1.64648 16.0332C1.93866 16.3467 2.35101 16.581 2.82509 16.7031L7.58483 17.9297C8.073 18.0554 8.60073 18.0554 9.0889 17.9297L14.7244 16.4777C15.2126 16.352 15.7403 16.352 16.2285 16.4777L19.4842 17.3169C19.842 17.409 20.2231 17.4341 20.596 17.39C20.9688 17.3459 21.3228 17.2339 21.6287 17.0633C21.9346 16.8926 22.1836 16.6682 22.3553 16.4085C22.527 16.1488 22.6163 15.8612 22.6161 15.5696V4.72882C22.6163 4.34256 22.4593 3.96603 22.1673 3.6526C21.8754 3.33916 21.4633 3.10471 20.9894 2.98245L16.2297 1.75595C15.7412 1.63002 15.213 1.63002 14.7244 1.75595L9.08771 3.20788C8.59954 3.33361 8.07181 3.33361 7.58364 3.20788L7.58483 3.2088Z" stroke="#724EEB" stroke-width="1.65299" stroke-linecap="round" stroke-linejoin="round"/>
<path d="M15.4775 1.56189V16.2837M8.33789 3.40211V18.1239V3.40211Z" stroke="#724EEB" stroke-width="1.65299" stroke-linejoin="round"/>
</svg>
