<svg width="28" height="28" viewBox="0 0 28 28" fill="none" xmlns="http://www.w3.org/2000/svg">
<g clip-path="url(#clip0_891_4809)">
<path d="M9.17181 23.7602C9.13802 23.7602 9.09296 23.7828 9.05917 23.7828C6.87388 22.7014 5.09411 20.9104 4.00146 18.7251C4.00146 18.6913 4.02399 18.6462 4.02399 18.6124C5.39825 19.0179 6.81756 19.3221 8.2256 19.5586C8.47342 20.9779 8.76629 22.386 9.17181 23.7602Z" fill="#A7A9B7"/>
<path d="M24.1427 18.7363C23.0275 20.9779 21.1689 22.7915 18.9048 23.8842C19.3328 22.4536 19.6933 21.0117 19.9298 19.5586C21.3492 19.3221 22.7459 19.0179 24.1202 18.6124C24.1089 18.6575 24.1427 18.7025 24.1427 18.7363Z" fill="#A7A9B7"/>
<path d="M24.2328 8.89201C22.8135 8.46396 21.3829 8.11477 19.9298 7.86695C19.6933 6.41385 19.3441 4.97201 18.9048 3.56396C21.2365 4.67914 23.1177 6.56029 24.2328 8.89201Z" fill="#A7A9B7"/>
<path d="M9.17599 3.68687C8.77047 5.06112 8.4776 6.4579 8.24104 7.87721C6.78794 8.1025 5.3461 8.46296 3.91553 8.89101C5.00817 6.62687 6.82173 4.76825 9.06334 3.65308C9.09714 3.65308 9.14219 3.68687 9.17599 3.68687Z" fill="#A7A9B7"/>
<path d="M18.0022 7.63214C15.3888 7.33926 12.753 7.33926 10.1396 7.63214C10.4213 6.08892 10.7817 4.5457 11.2886 3.0588C11.3111 2.96869 11.2999 2.9011 11.3111 2.81099C12.201 2.59696 13.1134 2.46179 14.0709 2.46179C15.0171 2.46179 15.9408 2.59696 16.8194 2.81099C16.8307 2.9011 16.8307 2.96869 16.8532 3.0588C17.3601 4.55696 17.7206 6.08892 18.0022 7.63214Z" fill="#A7A9B7"/>
<path d="M7.97699 17.6571C6.4225 17.3755 4.89055 17.015 3.40365 16.5081C3.31354 16.4856 3.24595 16.4969 3.15584 16.4856C2.94181 15.5957 2.80664 14.6833 2.80664 13.7258C2.80664 12.7796 2.94181 11.8559 3.15584 10.9773C3.24595 10.9661 3.31354 10.966 3.40365 10.9435C4.90181 10.4479 6.4225 10.0762 7.97699 9.79456C7.69538 12.4079 7.69538 15.0438 7.97699 17.6571Z" fill="#A7A9B7"/>
<path d="M25.3359 13.7258C25.3359 14.6833 25.2007 15.5957 24.9867 16.4856C24.8966 16.4969 24.829 16.4856 24.7389 16.5081C23.2407 17.0038 21.7087 17.3755 20.1655 17.6571C20.4584 15.0438 20.4584 12.4079 20.1655 9.79456C21.7087 10.0762 23.252 10.4366 24.7389 10.9435C24.829 10.966 24.8966 10.9773 24.9867 10.9773C25.2007 11.8672 25.3359 12.7796 25.3359 13.7258Z" fill="#A7A9B7"/>
<path d="M18.0022 19.8203C17.7206 21.3748 17.3601 22.9067 16.8532 24.3936C16.8307 24.4838 16.8307 24.5513 16.8194 24.6415C15.9408 24.8555 15.0171 24.9907 14.0709 24.9907C13.1134 24.9907 12.201 24.8555 11.3111 24.6415C11.2999 24.5513 11.3111 24.4838 11.2886 24.3936C10.793 22.8955 10.4213 21.3748 10.1396 19.8203C11.4463 19.9667 12.753 20.0681 14.0709 20.0681C15.3888 20.0681 16.7068 19.9667 18.0022 19.8203Z" fill="#A7A9B7"/>
<path d="M18.3103 17.9652C15.493 18.3207 12.6493 18.3207 9.83202 17.9652C9.47657 15.1479 9.47657 12.3043 9.83202 9.48693C12.6493 9.13147 15.493 9.13147 18.3103 9.48693C18.6658 12.3043 18.6658 15.1479 18.3103 17.9652Z" fill="#A7A9B7"/>
</g>
<defs>
<clipPath id="clip0_891_4809">
<rect width="27.0345" height="27.0345" fill="white" transform="translate(0.554199 0.208008)"/>
</clipPath>
</defs>
</svg>
