<svg width="30" height="27" viewBox="0 0 30 27" fill="none" xmlns="http://www.w3.org/2000/svg">
<path d="M26.793 4.0885C26.1333 3.42635 25.35 2.90108 24.4879 2.54271C23.6257 2.18433 22.7017 1.99988 21.7684 1.99988C20.8352 1.99988 19.9111 2.18433 19.049 2.54271C18.1869 2.90108 17.4036 3.42635 16.7438 4.0885L15.3747 5.46206L14.0055 4.0885C12.6729 2.75162 10.8655 2.00057 8.98087 2.00057C7.09628 2.00057 5.28887 2.75162 3.95626 4.0885C2.62365 5.42538 1.875 7.23857 1.875 9.1292C1.875 11.0198 2.62365 12.833 3.95626 14.1699L5.32544 15.5435L15.3747 25.6249L25.4239 15.5435L26.793 14.1699C27.4531 13.5081 27.9767 12.7222 28.3339 11.8573C28.6911 10.9924 28.875 10.0654 28.875 9.1292C28.875 8.193 28.6911 7.26596 28.3339 6.40106C27.9767 5.53616 27.4531 4.75034 26.793 4.0885Z" stroke="white" stroke-width="2.25" stroke-linecap="round" stroke-linejoin="round"/>
</svg>
