<svg width="43" height="43" viewBox="0 0 43 43" fill="none" xmlns="http://www.w3.org/2000/svg">
<path fill-rule="evenodd" clip-rule="evenodd" d="M16.3967 20.6718H20.4679C20.8868 20.6718 21.395 20.2711 21.395 19.5908V12.9619C21.395 12.2817 20.8868 11.8818 20.4679 11.8818H10.4739C10.0542 11.8818 9.54681 12.2817 9.54681 12.9619V19.5908C9.54681 20.2711 10.0542 20.6718 10.4739 20.6718H14.8986L16.3967 22.2611V20.6718ZM17.9671 25.1782C17.9669 25.2609 17.942 25.3416 17.8955 25.41C17.849 25.4784 17.7831 25.5312 17.7062 25.5618C17.6294 25.5923 17.5452 25.5991 17.4645 25.5814C17.3837 25.5636 17.3102 25.522 17.2533 25.462L14.2209 22.243H10.4739C9.09789 22.243 7.97559 21.0494 7.97559 19.5908V12.9619C7.97559 11.4999 9.09961 10.3105 10.4739 10.3105H20.4679C21.8439 10.3105 22.9619 11.5034 22.9619 12.9619V19.5908C22.9619 21.0528 21.8379 22.243 20.4679 22.243H17.9671V25.1782Z" fill="white"/>
<path d="M15.9615 15.6125L16.6185 15.9719C16.6473 15.9875 16.6713 16.0105 16.688 16.0386C16.7047 16.0667 16.7135 16.0988 16.7135 16.1315C16.7135 16.1641 16.7047 16.1962 16.688 16.2243C16.6713 16.2524 16.6473 16.2754 16.6185 16.291L15.9615 16.6505C15.9306 16.6672 15.9052 16.6926 15.8884 16.7236L15.5298 17.3806C15.5141 17.4093 15.491 17.4333 15.4628 17.45C15.4347 17.4666 15.4025 17.4754 15.3698 17.4754C15.3371 17.4754 15.305 17.4666 15.2768 17.45C15.2487 17.4333 15.2256 17.4093 15.2099 17.3806L14.8512 16.7236C14.835 16.6923 14.8094 16.6668 14.7781 16.6505L14.1211 16.291C14.0924 16.2754 14.0684 16.2524 14.0517 16.2243C14.0349 16.1962 14.0261 16.1641 14.0261 16.1315C14.0261 16.0988 14.0349 16.0667 14.0517 16.0386C14.0684 16.0105 14.0924 15.9875 14.1211 15.9719L14.7781 15.6125C14.8094 15.5962 14.835 15.5706 14.8512 15.5394L15.2099 14.8823C15.2256 14.8536 15.2487 14.8297 15.2768 14.813C15.305 14.7963 15.3371 14.7875 15.3698 14.7875C15.4025 14.7875 15.4347 14.7963 15.4628 14.813C15.491 14.8297 15.5141 14.8536 15.5298 14.8823L15.8884 15.5394C15.9052 15.5703 15.9306 15.5957 15.9615 15.6125Z" fill="white"/>
<path d="M12.4477 15.6125L13.1039 15.9719C13.1326 15.9875 13.1566 16.0105 13.1733 16.0386C13.1901 16.0667 13.1989 16.0988 13.1989 16.1315C13.1989 16.1641 13.1901 16.1962 13.1733 16.2243C13.1566 16.2524 13.1326 16.2754 13.1039 16.291L12.4477 16.6505C12.4163 16.6669 12.3906 16.6924 12.3738 16.7236L12.0151 17.3806C11.9994 17.4093 11.9763 17.4333 11.9482 17.45C11.92 17.4666 11.8879 17.4754 11.8552 17.4754C11.8225 17.4754 11.7903 17.4666 11.7622 17.45C11.7341 17.4333 11.7109 17.4093 11.6952 17.3806L11.3366 16.7236C11.3203 16.6923 11.2948 16.6668 11.2635 16.6505L10.6065 16.291C10.5777 16.2754 10.5537 16.2524 10.537 16.2243C10.5203 16.1962 10.5115 16.1641 10.5115 16.1315C10.5115 16.0988 10.5203 16.0667 10.537 16.0386C10.5537 16.0105 10.5777 15.9875 10.6065 15.9719L11.2635 15.6125C11.2948 15.5962 11.3203 15.5706 11.3366 15.5394L11.6952 14.8823C11.7109 14.8536 11.7341 14.8297 11.7622 14.813C11.7903 14.7963 11.8225 14.7875 11.8552 14.7875C11.8879 14.7875 11.92 14.7963 11.9482 14.813C11.9763 14.8297 11.9994 14.8536 12.0151 14.8823L12.3738 15.5394C12.3906 15.5705 12.4163 15.596 12.4477 15.6125Z" fill="white"/>
<path d="M19.4773 15.6125L20.1334 15.9719C20.1622 15.9875 20.1862 16.0105 20.2029 16.0386C20.2196 16.0667 20.2284 16.0988 20.2284 16.1315C20.2284 16.1641 20.2196 16.1962 20.2029 16.2243C20.1862 16.2524 20.1622 16.2754 20.1334 16.291L19.4773 16.6505C19.446 16.6668 19.4205 16.6923 19.4042 16.7236L19.0447 17.3806C19.029 17.4093 19.0058 17.4333 18.9777 17.45C18.9496 17.4666 18.9174 17.4754 18.8847 17.4754C18.852 17.4754 18.8199 17.4666 18.7917 17.45C18.7636 17.4333 18.7405 17.4093 18.7248 17.3806L18.3661 16.7236C18.3498 16.6923 18.3243 16.6668 18.293 16.6505L17.636 16.291C17.6073 16.2754 17.5833 16.2524 17.5666 16.2243C17.5498 16.1962 17.541 16.1641 17.541 16.1315C17.541 16.0988 17.5498 16.0667 17.5666 16.0386C17.5833 16.0105 17.6073 15.9875 17.636 15.9719L18.293 15.6125C18.3243 15.5962 18.3498 15.5706 18.3661 15.5394L18.7248 14.8823C18.7405 14.8536 18.7636 14.8297 18.7917 14.813C18.8199 14.7963 18.852 14.7875 18.8847 14.7875C18.9174 14.7875 18.9496 14.7963 18.9777 14.813C19.0058 14.8297 19.029 14.8536 19.0447 14.8823L19.4042 15.5394C19.4205 15.5706 19.446 15.5962 19.4773 15.6125Z" fill="white"/>
<path d="M32.5262 29.3398C33.9022 29.3398 35.0245 28.1461 35.0245 26.6884V20.0595C35.0245 18.5975 33.9004 17.4073 32.5262 17.4073H25.0321V18.7334C25.0321 21.6497 22.7841 24.0362 20.0364 24.0362V26.6884C20.0364 28.1461 21.1604 29.3398 22.5304 29.3398H25.0244V32.275C25.0244 32.3578 25.0492 32.4388 25.0958 32.5073C25.1423 32.5759 25.2084 32.6289 25.2854 32.6595C25.3624 32.6901 25.4468 32.6968 25.5277 32.6788C25.6086 32.6609 25.6822 32.6191 25.739 32.5588L28.7714 29.3398H32.5262Z" fill="white"/>
</svg>
