<?xml version="1.0" encoding="UTF-8"?>
<svg id="Layer_2" data-name="Layer 2" xmlns="http://www.w3.org/2000/svg" xmlns:xlink="http://www.w3.org/1999/xlink" viewBox="0 0 286.43 506.94">
  <defs>
    <style>
      .cls-1 {
        fill: url(#linear-gradient);
        stroke-width: 0px;
      }
    </style>
    <linearGradient id="linear-gradient" x1="143.22" y1="506.94" x2="143.22" y2="0" gradientUnits="userSpaceOnUse">
      <stop offset=".23" stop-color="#5024d1"/>
      <stop offset=".44" stop-color="#6a37e6"/>
      <stop offset=".65" stop-color="#7f46f8"/>
      <stop offset=".8" stop-color="#874cff"/>
    </linearGradient>
  </defs>
  <g id="Layer_1-2" data-name="Layer 1">
    <path class="cls-1" d="m1.14,506.94h284.15c.73,0,1.27-.67,1.11-1.38l-2.09-9.61c-38.27-175.83-49.61-227.92-52.97-243.39-.09-.42.06-.85.4-1.11,33.17-26.71,52.79-67.4,52.79-110.14C284.52,63.39,221.13,0,143.22,0S1.91,63.39,1.91,141.3c0,42.73,19.61,83.42,52.78,110.14.33.27.49.7.4,1.12l-10.42,47.89L.03,505.56c-.15.71.39,1.38,1.11,1.38Zm137.05-221.92c3.14,3.52,7.85,5.93,9,6.37.78.29,1.52.67,2.1,1.01.62.36.76,1.21.27,1.74-2.55,2.75-8.89,4.22-10.46,20.34-.21-8.07-.74-21.88-.92-29.46Zm29.5,203.4s-.65-26.11-27.99-33.71c-.51-.14-.87-.61-.84-1.14.26-5.97,1.67-39.61.01-46.54-1.82-7.6,1.03-78.54.82-83.18-.23-4.88-.84-7.22,1.86-1.13,3.11,7.01,10.19,7.15,14.46,11.41,2.51,2.51,4.41,7.27,1.54,18.51-2.87,11.24-8.15,20.94-1.32,32.84,6.83,11.9,22.48,14.77,39.89,14.33,17.41-.44,37.69-2.86,39.89-3.53,2.2-.66,13.93,29.45,10.14,48.71-2.45,12.45-13.16,40.68-44.8,43.71-8.18.78-33.55.09-33.55.09-.08-.24-.11-.38-.11-.38Zm-97.03-247.57c-31.7-23.15-50.63-60.37-50.63-99.56,0-67.92,55.26-123.18,123.18-123.18,29.86,0,57.26,10.68,78.61,28.42l-.13.2s-10.58,18.51-12.34,37.25c-1.57,16.7,1.32,22.92.44,35.26-.61,8.6-1.98,22.7-9.92,32.4-10.88,13.3-62.15,42.32-66.78,50.25-4.63,7.93-2.14,14.13,0,17.19,3.09,4.41,19.18,14.55,23.14,23.14,3.97,8.6-2.02,14.2-5.93,17.69-3.47,3.1-9.19,7.92-13.13,13.79-.22-1.29-.47-2.49-.78-3.45-3.47-10.83-7.97-30.29-19.34-27.86-11.86,2.54-11.76,13.93-11.57,35.21.11,12.4-.27,22.28-.54,27.45-.12,2.39-.34,4.76-.64,7.13-1.78,13.82-8.78,68.29-9.07,72.04-.33,4.3-1.98,13.06-15.54,13.39-13.55.33-22.84,6.05-25.95,13.39-2.51,5.94-4.79,20.17-7.11,21.82-2.18,1.56-6.27.05-12.4,4.15-.31.21-.72-.08-.64-.44l41.67-191.47c.1-.44-.08-.9-.44-1.16l-4.17-3.04Z"/>
  </g>
</svg>