<svg width="31" height="30" viewBox="0 0 31 30" fill="none" xmlns="http://www.w3.org/2000/svg">
<path opacity="0.4" d="M26.9655 26.91C26.9655 27.2563 26.6934 27.5283 26.3472 27.5283H5.10267C4.75642 27.5283 4.48438 27.2563 4.48438 26.91C4.48438 21.7905 9.52964 17.6356 15.7249 17.6356C16.9986 17.6356 18.2352 17.8087 19.3729 18.1426C18.6433 19.0082 18.1981 20.1335 18.1981 21.3454C18.1981 22.2728 18.4578 23.1508 18.9153 23.8927C19.1626 24.3132 19.4841 24.6965 19.8551 25.018C20.7207 25.8094 21.8708 26.2917 23.1444 26.2917C24.5294 26.2917 25.7784 25.7229 26.6687 24.8078C26.8666 25.4756 26.9655 26.1804 26.9655 26.91Z" fill="white"/>
<path d="M26.8182 18.044C25.9279 17.03 24.6047 16.3993 23.1456 16.3993C21.7606 16.3993 20.4993 16.9681 19.5966 17.8956C18.731 18.7859 18.1992 20.0101 18.1992 21.3456C18.1992 22.2731 18.4589 23.151 18.9164 23.893C19.1637 24.3134 19.4853 24.6967 19.8562 25.0183C20.7218 25.8097 21.8719 26.292 23.1456 26.292C24.951 26.292 26.5215 25.3274 27.3747 23.893C27.6344 23.4726 27.8322 22.9903 27.9435 22.4956C28.0424 22.1247 28.0919 21.7413 28.0919 21.3456C28.0919 20.0843 27.6096 18.9219 26.8182 18.044ZM25.0004 22.2483H24.073V23.2129C24.073 23.7199 23.6526 24.1403 23.1456 24.1403C22.6386 24.1403 22.2181 23.7199 22.2181 23.2129V22.2483H21.2907C20.7837 22.2483 20.3632 21.8279 20.3632 21.3209C20.3632 20.8139 20.7837 20.3934 21.2907 20.3934H22.2181V19.5155C22.2181 19.0085 22.6386 18.5881 23.1456 18.5881C23.6526 18.5881 24.073 19.0085 24.073 19.5155V20.3934H25.0004C25.5074 20.3934 25.9279 20.8139 25.9279 21.3209C25.9279 21.8279 25.5074 22.2483 25.0004 22.2483Z" fill="white"/>
<path d="M15.7259 15.1616C19.1406 15.1616 21.9088 12.3934 21.9088 8.9787C21.9088 5.56397 19.1406 2.79578 15.7259 2.79578C12.3112 2.79578 9.54297 5.56397 9.54297 8.9787C9.54297 12.3934 12.3112 15.1616 15.7259 15.1616Z" fill="white"/>
</svg>
