<svg width="23" height="23" viewBox="0 0 23 23" fill="none" xmlns="http://www.w3.org/2000/svg">
<g clip-path="url(#clip0_891_5748)">
<path d="M16.1007 19.5096V17.6547C16.1007 16.6708 15.7099 15.7272 15.0142 15.0315C14.3185 14.3358 13.3749 13.9449 12.391 13.9449H4.97147C3.98759 13.9449 3.044 14.3358 2.34828 15.0315C1.65257 15.7272 1.26172 16.6708 1.26172 17.6547V19.5096" stroke="white" stroke-width="2.47317" stroke-linecap="round" stroke-linejoin="round"/>
<path d="M8.68241 10.2356C10.7313 10.2356 12.3922 8.57464 12.3922 6.5258C12.3922 4.47695 10.7313 2.81604 8.68241 2.81604C6.63357 2.81604 4.97266 4.47695 4.97266 6.5258C4.97266 8.57464 6.63357 10.2356 8.68241 10.2356Z" stroke="white" stroke-width="2.47317" stroke-linecap="round" stroke-linejoin="round"/>
<path d="M21.6651 19.5101V17.6552C21.6645 16.8333 21.3909 16.0348 20.8873 15.3852C20.3838 14.7355 19.6787 14.2715 18.8828 14.066" stroke="white" stroke-width="2.47317" stroke-linecap="round" stroke-linejoin="round"/>
<path d="M15.1719 2.93713C15.9699 3.14145 16.6771 3.60554 17.1822 4.25624C17.6873 4.90694 17.9615 5.70724 17.9615 6.53096C17.9615 7.35468 17.6873 8.15498 17.1822 8.80568C16.6771 9.45638 15.9699 9.92047 15.1719 10.1248" stroke="white" stroke-width="2.47317" stroke-linecap="round" stroke-linejoin="round"/>
</g>
<defs>
<clipPath id="clip0_891_5748">
<rect width="22.2585" height="22.2585" fill="white" transform="translate(0.335938 0.0328369)"/>
</clipPath>
</defs>
</svg>
