<svg width="14" height="15" viewBox="0 0 14 15" fill="none" xmlns="http://www.w3.org/2000/svg">
<path d="M10.7707 10.1047L7.94202 12.9334C7.69201 13.1831 7.35307 13.3234 6.99968 13.3234C6.6463 13.3234 6.30736 13.1831 6.05735 12.9334L3.22802 10.1047C2.48217 9.35882 1.97424 8.40852 1.76848 7.37396C1.56271 6.3394 1.66834 5.26706 2.07202 4.29254C2.4757 3.31801 3.15928 2.48508 4.03634 1.89905C4.9134 1.31303 5.94453 1.00024 6.99935 1.00024C8.05417 1.00024 9.08531 1.31303 9.96236 1.89905C10.8394 2.48508 11.523 3.31801 11.9267 4.29254C12.3304 5.26706 12.436 6.3394 12.2302 7.37396C12.0245 8.40852 11.5165 9.35882 10.7707 10.1047V10.1047Z" stroke="white" stroke-width="1.5" stroke-linecap="round" stroke-linejoin="round"/>
</svg>
