<svg width="21" height="22" viewBox="0 0 21 22" fill="none" xmlns="http://www.w3.org/2000/svg">
<path d="M10.0721 10.9986H6.02052C6.01814 10.9987 6.01579 10.9982 6.01363 10.9972C6.01147 10.9962 6.00957 10.9947 6.00808 10.9929C6.00658 10.991 6.00554 10.9889 6.00502 10.9865C6.00449 10.9842 6.00451 10.9818 6.00507 10.9795L6.64098 8.14612L6.78905 7.48478C6.78968 7.48195 6.7895 7.47901 6.78854 7.47628C6.78758 7.47355 6.78586 7.47114 6.7836 7.46934C6.55118 7.2897 6.36273 7.05947 6.23256 6.79614C6.10239 6.5328 6.03391 6.24328 6.03233 5.94953C6.03233 4.87304 6.93622 3.99731 8.04632 3.99731C9.15642 3.99731 10.0612 4.87304 10.0612 5.94953C10.0595 6.24344 9.99076 6.53309 9.86026 6.79644C9.72976 7.0598 9.54093 7.28993 9.30813 7.46934C9.30586 7.47114 9.30415 7.47355 9.30319 7.47628C9.30222 7.47901 9.30205 7.48195 9.30268 7.48478C9.35082 7.69917 9.51162 8.41865 10.0576 10.846L10.0876 10.9786C10.0883 10.981 10.0884 10.9835 10.088 10.9859C10.0876 10.9884 10.0865 10.9906 10.085 10.9926C10.0835 10.9946 10.0815 10.9961 10.0793 10.9972C10.0771 10.9982 10.0746 10.9987 10.0721 10.9986Z" fill="white"/>
<path d="M14.687 13.0535C15.2139 13.5495 15.6073 14.1055 15.4601 14.7323C17.0272 16.0659 18.5143 17.3204 19.9941 18.5877C20.1899 18.7574 20.3747 18.9395 20.5473 19.1327C21.2078 19.8713 21.1478 20.9296 20.4211 21.5637C20.166 21.7883 19.851 21.9338 19.5146 21.9822C19.1782 22.0306 18.835 21.9799 18.527 21.8362C18.3056 21.7276 18.1101 21.5727 17.9538 21.382C16.4203 19.5124 15.7 18.3233 15.7 18.3233C15.3538 17.7483 14.8333 16.9189 14.1465 15.9251C13.4071 16.0041 12.8938 15.5662 12.4605 14.9912C11.2468 15.6771 10.0077 16.0695 8.73592 16.154C7.72086 16.2246 6.70148 16.1073 5.72902 15.8079C5.44195 15.7225 2.73119 14.8404 1.18686 12.4031C-0.629999 9.49609 -0.56641 4.7777 2.82658 1.90887C5.8671 -0.659261 10.481 -0.634733 13.5615 1.97428C16.5203 4.47337 17.5877 9.08002 14.687 13.0535ZM8.16633 1.33474C4.37909 1.32838 1.27861 4.35437 1.28588 8.05713C1.28588 11.8017 4.36546 14.814 8.18995 14.814C11.9436 14.8204 15.0441 11.7817 15.0441 8.10255C15.0468 4.34892 11.9936 1.34383 8.16633 1.33656V1.33474Z" fill="white"/>
</svg>
