<svg width="20" height="20" viewBox="0 0 20 20" fill="none" xmlns="http://www.w3.org/2000/svg">
<path d="M19.961 0.613647V13.6855C19.961 14.6562 19.5754 15.5872 18.889 16.2736C18.2026 16.96 17.2716 17.3456 16.3009 17.3456C15.3302 17.3456 14.3992 16.96 13.7128 16.2736C13.0264 15.5872 12.6408 14.6562 12.6408 13.6855C12.6408 12.7148 13.0264 11.7838 13.7128 11.0974C14.3992 10.411 15.3302 10.0254 16.3009 10.0254C16.8656 10.0254 17.3989 10.1509 17.8695 10.3809V4.2424L7.41204 6.46984V15.777C7.41204 16.7477 7.02642 17.6787 6.34001 18.3651C5.65361 19.0515 4.72264 19.4371 3.75192 19.4371C2.78119 19.4371 1.85023 19.0515 1.16382 18.3651C0.477416 17.6787 0.0917969 16.7477 0.0917969 15.777C0.0917969 14.8063 0.477416 13.8753 1.16382 13.1889C1.85023 12.5025 2.78119 12.1169 3.75192 12.1169C4.31662 12.1169 4.84995 12.2424 5.32054 12.4724V3.75089L19.961 0.613647Z" fill="white"/>
</svg>
