<svg width="60" height="60" viewBox="0 0 60 60" fill="none" xmlns="http://www.w3.org/2000/svg">
<path fill-rule="evenodd" clip-rule="evenodd" d="M37.5 23.6808C37.38 23.4048 37.248 23.1348 37.104 22.8732C36.2587 21.3414 34.9984 20.079 33.468 19.2312C33.2607 19.8013 33.15 20.4019 33.1404 21.0084C34.0262 21.5908 34.7807 22.3515 35.3558 23.2421C35.9308 24.1327 36.3137 25.1334 36.48 26.1804C37.0374 26.4197 37.6307 26.5648 38.2356 26.61C38.1501 25.6003 37.9017 24.6111 37.5 23.6808Z" fill="white"/>
<path fill-rule="evenodd" clip-rule="evenodd" d="M42.0925 38.9916L41.0317 39.4524C39.3308 40.1776 37.566 40.7425 35.7601 41.1396H35.7493H35.7409L35.6113 41.166C35.1565 41.2584 34.1821 41.4576 32.8441 41.616C32.3149 43.2648 30.7849 44.496 28.9669 44.496C28.0974 44.4982 27.2502 44.2209 26.5504 43.7049C25.8505 43.1889 25.3351 42.4617 25.0801 41.6304C24.1097 41.5329 23.1473 41.3673 22.2001 41.1348C20.3852 40.7456 18.6119 40.183 16.9045 39.4548L15.8401 38.9916L16.6021 38.1192C17.3593 37.2512 17.9977 36.2864 18.5005 35.25C19.1243 33.9311 19.5044 32.5102 19.6225 31.056V27.426C19.6214 25.6617 20.1207 23.9332 21.0625 22.4412C21.9713 20.9911 23.2571 19.8152 24.7825 19.0392C24.7872 19.037 24.791 19.0332 24.7933 19.0284C24.8054 19.0097 24.8128 18.9883 24.8149 18.966C25.1233 16.6356 27.1009 15.4608 28.9477 15.504C30.7549 15.504 32.7445 16.626 33.0553 18.9624C33.0588 18.9845 33.0666 19.0057 33.0781 19.0248C33.0815 19.0297 33.0856 19.0341 33.0901 19.038C33.2161 19.1004 33.3397 19.1652 33.4609 19.2336C33.2536 19.8037 33.1429 20.4043 33.1333 21.0108C32.8776 20.8424 32.6119 20.6897 32.3377 20.5536C32.0778 20.4217 31.8544 20.228 31.687 19.9894C31.5196 19.7509 31.4134 19.4748 31.3777 19.1856C31.2049 17.8944 30.1261 17.196 28.9345 17.196H28.9201C27.7621 17.1648 26.6713 17.874 26.4985 19.188C26.4633 19.4755 26.3584 19.7501 26.193 19.9878C26.0275 20.2256 25.8066 20.4194 25.5493 20.5524C24.2785 21.1977 23.2102 22.181 22.462 23.3941C21.7138 24.6072 21.3147 26.0032 21.3085 27.4284V31.1256V31.1592C21.1775 32.8317 20.742 34.4662 20.0233 35.982C19.6258 36.8027 19.1526 37.5845 18.6097 38.3172C19.9055 38.802 21.2345 39.1926 22.5865 39.486H22.6105L22.6369 39.4932C23.1553 39.642 25.6153 40.1508 28.9897 40.1508C31.1028 40.152 33.2105 39.9377 35.2801 39.5112L35.4001 39.4872C36.7346 39.1904 38.0466 38.8002 39.3265 38.3196C38.7798 37.5877 38.2945 36.8119 37.8757 36L37.8697 35.988L37.8625 35.976C37.1438 34.4603 36.709 32.8257 36.5797 31.1532V31.1196V27.426C36.5793 27.0089 36.5464 26.5924 36.4813 26.1804C37.0387 26.4197 37.632 26.5649 38.2369 26.61C38.2593 26.8788 38.2705 27.1508 38.2705 27.426V31.056C38.3882 32.5067 38.7666 33.9242 39.3877 35.2404C39.9201 36.2741 40.5735 37.2409 41.3341 38.1204L42.0925 38.9916Z" fill="white"/>
<path d="M44.1601 21.1128C44.1601 22.5749 43.5793 23.9771 42.5454 25.0109C41.5116 26.0448 40.1094 26.6256 38.6473 26.6256C38.5069 26.6256 38.3677 26.6256 38.2297 26.61C36.8434 26.5055 35.5479 25.881 34.6027 24.8615C33.6576 23.842 33.1327 22.503 33.1333 21.1128C33.1333 21.078 33.1333 21.0432 33.1333 21.0084C33.1429 20.4019 33.2536 19.8012 33.4609 19.2312C33.9024 18.0108 34.7601 16.9852 35.8833 16.3349C37.0064 15.6846 38.323 15.4513 39.6012 15.6761C40.8794 15.9009 42.0373 16.5694 42.8712 17.5638C43.7051 18.5583 44.1615 19.815 44.1601 21.1128Z" fill="url(#paint0_linear_891_3779)"/>
<path d="M37.104 23.6808V22.8552H38.214V19.6056H37.2768V18.9744C37.7006 18.9085 38.1079 18.7622 38.4768 18.5436H39.24V22.8552H40.2V23.6808H37.104Z" fill="white"/>
<path d="M22.0488 35.0844C22.0488 35.0844 26.2488 35.6052 28.9644 35.6052C31.68 35.6052 35.88 35.0844 35.88 35.0844C35.88 35.0844 36.06 35.6484 36.2088 35.9892C36.3576 36.33 36.6636 36.8604 36.6636 36.8604C36.6636 36.8604 33.8304 37.7508 28.9656 37.7508C24.1008 37.7508 21.2664 36.8604 21.2664 36.8604C21.4444 36.5803 21.6047 36.2894 21.7464 35.9892C21.8645 35.6937 21.9655 35.3916 22.0488 35.0844Z" fill="white"/>
<defs>
<linearGradient id="paint0_linear_891_3779" x1="37.1341" y1="30.8004" x2="39.5581" y2="15.3228" gradientUnits="userSpaceOnUse">
<stop stop-color="#7D56F5"/>
<stop offset="1" stop-color="#4831C9"/>
</linearGradient>
</defs>
</svg>
