<svg width="57" height="56" viewBox="0 0 57 56" fill="none" xmlns="http://www.w3.org/2000/svg">
<g clip-path="url(#clip0_891_5252)">
<path d="M31.6462 12.6005C30.5916 12.4864 29.5201 12.421 28.434 12.4048C23.6878 12.4258 18.7678 13.5803 14.1107 15.7924C10.6529 17.5026 7.28464 19.9169 4.35944 22.895C2.9228 24.4152 1.08923 26.6165 0.792969 28.965C0.827981 30.9995 3.0113 33.5106 4.35944 35.0352C7.10249 37.8963 10.3831 40.2415 14.1107 42.1377C14.2374 42.1992 14.3646 42.26 14.492 42.3199L11.0335 48.3596L15.7327 51.1368L41.1356 6.90973L36.6123 4.14526L31.6462 12.6005ZM42.3725 15.617L38.9208 21.5993C40.5087 23.6623 41.4514 26.2064 41.4514 28.965C41.4514 35.8411 35.6227 41.4156 28.4306 41.4156C28.1196 41.4156 27.8183 41.3821 27.5128 41.3616L25.2285 45.3162C26.282 45.429 27.3472 45.5112 28.4339 45.5254C33.1846 45.504 38.1019 44.3362 42.7538 42.1377C46.2116 40.4276 49.5832 38.0133 52.5084 35.0352C53.9451 33.515 55.7786 31.3137 56.0749 28.965C56.0399 26.9306 53.8566 24.4195 52.5084 22.8949C49.7654 20.0338 46.4815 17.6886 42.7538 15.7923C42.628 15.7314 42.4992 15.6765 42.3725 15.617ZM28.4306 16.5145C28.746 16.5145 29.0589 16.5271 29.3686 16.5482L26.6929 21.1809C22.9377 21.9422 20.1201 25.1373 20.1201 28.9617C20.1201 29.9224 20.297 30.8422 20.6228 31.6947C20.6232 31.6957 20.6224 31.6972 20.6228 31.6981L17.9403 36.3443C16.3486 34.2794 15.4097 31.7269 15.4097 28.965C15.4098 22.0891 21.2385 16.5145 28.4306 16.5145ZM36.2147 26.2826L30.1852 36.729C33.9202 35.9533 36.7175 32.7729 36.7175 28.9617C36.7175 28.0185 36.5293 27.1218 36.2147 26.2826Z" fill="#724EEB"/>
</g>
<defs>
<clipPath id="clip0_891_5252">
<rect width="55.282" height="55.282" fill="white" transform="translate(0.792969)"/>
</clipPath>
</defs>
</svg>
