<svg width="21" height="21" viewBox="0 0 21 21" fill="none" xmlns="http://www.w3.org/2000/svg">
<path fill-rule="evenodd" clip-rule="evenodd" d="M10.5 19.3198C12.2444 19.3198 13.9496 18.8025 15.4 17.8334C16.8504 16.8642 17.9808 15.4868 18.6484 13.8752C19.3159 12.2636 19.4906 10.4902 19.1503 8.77936C18.81 7.06849 17.97 5.49696 16.7365 4.2635C15.503 3.03003 13.9315 2.19003 12.2206 1.84972C10.5098 1.50941 8.73642 1.68407 7.12482 2.35161C5.51322 3.01916 4.13577 4.14961 3.16664 5.60001C2.19751 7.05041 1.68024 8.75562 1.68024 10.5C1.68024 12.8391 2.60947 15.0825 4.26349 16.7365C5.91751 18.3905 8.16085 19.3198 10.5 19.3198ZM10.5 21C12.5767 21 14.6068 20.3842 16.3335 19.2304C18.0602 18.0767 19.406 16.4368 20.2007 14.5182C20.9955 12.5996 21.2034 10.4884 20.7982 8.45155C20.3931 6.41475 19.3931 4.54383 17.9246 3.07538C16.4562 1.60693 14.5852 0.606904 12.5484 0.201759C10.5116 -0.203386 8.40045 0.00455018 6.48182 0.79927C4.5632 1.59399 2.92332 2.9398 1.76957 4.66652C0.615815 6.39323 0 8.4233 0 10.5C0.00023122 13.2847 1.10655 15.9553 3.07563 17.9244C5.04472 19.8934 7.7153 20.9998 10.5 21Z" fill="url(#paint0_linear_773_4976)"/>
<path d="M15.1213 9.54081V11.3475C15.1213 11.3475 13.9877 11.3606 13.2605 11.3475C12.5046 11.3335 11.3292 11.2708 11.3292 11.2708C11.3292 11.2708 11.392 12.4461 11.4059 13.2021C11.4181 13.9293 11.4059 15.0629 11.4059 15.0629H9.59661C9.59661 15.0629 9.58353 13.9293 9.59661 13.2021C9.60969 12.4461 9.67247 11.2708 9.67247 11.2708C9.67247 11.2708 8.49796 11.3335 7.74111 11.3475C7.0139 11.3597 5.88037 11.3475 5.88037 11.3475V9.54081C5.88037 9.54081 7.0139 9.52773 7.74111 9.54081C8.49796 9.55476 9.67247 9.61754 9.67247 9.61754C9.67247 9.61754 9.60969 8.44303 9.59661 7.68618C9.58353 6.95897 9.59661 5.82544 9.59661 5.82544H11.4033C11.4033 5.82544 11.4164 6.95897 11.4033 7.68618C11.3893 8.44303 11.3266 9.61754 11.3266 9.61754C11.3266 9.61754 12.5019 9.55476 13.2579 9.54081C13.9877 9.52337 15.1213 9.54081 15.1213 9.54081Z" fill="url(#paint1_linear_773_4976)"/>
<defs>
<linearGradient id="paint0_linear_773_4976" x1="10.5" y1="4.72357e-06" x2="10.5" y2="21" gradientUnits="userSpaceOnUse">
<stop stop-color="#7D56F5"/>
<stop offset="1" stop-color="#4831C9"/>
</linearGradient>
<linearGradient id="paint1_linear_773_4976" x1="10.5" y1="5.82021" x2="10.5" y2="15.0594" gradientUnits="userSpaceOnUse">
<stop stop-color="#7D56F5"/>
<stop offset="1" stop-color="#4831C9"/>
</linearGradient>
</defs>
</svg>
