<svg width="45" height="45" viewBox="0 0 45 45" fill="none" xmlns="http://www.w3.org/2000/svg">
<path d="M17.5304 29.1566L18.9575 30.9596L17.8071 31.9354C16.0703 31.742 15.8483 33.4627 15.8483 33.4627L14.7624 34.3329L13.1868 32.4233L14.5063 31.3204L13.4867 30.1074L12.1268 31.153L10.2979 28.5335L24.0272 18.0468C24.1256 18.122 24.2241 18.1989 24.3217 18.2759C24.6084 18.4952 24.883 18.7298 25.1444 18.9787L25.498 19.4183C25.6909 19.7767 25.8555 20.1497 25.9904 20.5337C26.0397 20.6644 26.088 20.7969 26.1363 20.9285C26.1453 20.9518 26.1533 20.976 26.1623 20.9992L15.4159 28.9426L16.4902 29.9408L17.5304 29.1566Z" fill="url(#paint0_linear_891_5258)"/>
<path fill-rule="evenodd" clip-rule="evenodd" d="M33.5748 16.7699C33.2774 16.4895 32.9651 16.2253 32.6392 15.9785L32.3984 15.787C31.9508 15.4289 31.5453 15.086 31.3429 14.8112C31.1415 14.5426 30.9338 14.052 30.7252 13.5229C30.6885 13.4334 30.6527 13.3349 30.616 13.2409C30.4764 12.858 30.3162 12.483 30.1362 12.1174C29.6044 11.1326 28.6322 10.5901 27.5874 10.4594C26.5058 10.329 25.4148 10.612 24.5329 11.2517L23.9179 11.7101C23.0402 12.372 22.4413 13.3377 22.2384 14.4182C22.0486 15.462 22.2769 16.5551 23.1059 17.3232C23.3181 17.5201 23.6332 17.7645 23.9608 18.0188L24.019 18.0644C24.1175 18.1396 24.216 18.2166 24.3136 18.2936C24.6002 18.5129 24.8749 18.7475 25.1363 18.9964C25.2261 19.0838 25.3092 19.1778 25.3852 19.2775C25.4198 19.3252 25.4547 19.378 25.4899 19.4359C25.6827 19.7944 25.8473 20.1674 25.9823 20.5514C26.0315 20.6821 26.0799 20.8146 26.1282 20.9462C26.1372 20.9695 26.1452 20.9936 26.1542 21.0169C26.2141 21.1825 26.2741 21.3437 26.3332 21.4941C26.4004 21.666 26.4648 21.8226 26.5275 21.9533C27.0172 22.9712 27.9957 23.5101 29.0502 23.6355C30.1432 23.7596 31.2433 23.4723 32.1361 22.8298L32.7511 22.3795C33.6221 21.7252 34.2134 20.7658 34.4064 19.6938C34.5891 18.6553 34.3599 17.5676 33.5748 16.7699ZM32.1021 19.5532C32.0194 20.0678 31.7557 20.5361 31.3586 20.8736C30.9614 21.2112 30.4569 21.396 29.9356 21.3947C29.819 21.3948 29.7025 21.3856 29.5874 21.367C28.4119 21.179 27.7074 20.0823 27.7754 18.8379C27.8068 18.4954 27.7449 18.1508 27.5964 17.8406C27.4811 17.6168 27.3044 17.4305 27.087 17.3035C26.9278 17.2117 26.754 17.1481 26.5731 17.1155C26.5163 17.1051 26.4589 17.098 26.4012 17.094H26.3502C25.9257 17.0242 25.531 16.831 25.2156 16.5384C24.9002 16.2457 24.6779 15.8667 24.5765 15.4486C24.4751 15.0305 24.4991 14.5917 24.6455 14.1871C24.7919 13.7825 25.0541 13.43 25.3996 13.1735C25.745 12.917 26.1584 12.768 26.588 12.7449C27.0176 12.7218 27.4445 12.8258 27.8155 13.0438C28.1864 13.2618 28.4849 13.5842 28.6738 13.9708C28.8626 14.3574 28.9335 14.791 28.8775 15.2176L28.8694 15.2713C28.8694 15.2713 28.8694 15.2803 28.8694 15.2856C28.8694 15.291 28.8631 15.3179 28.8596 15.3411C28.8524 15.3877 28.8443 15.4521 28.8399 15.53C28.8279 15.727 28.8491 15.9246 28.9025 16.1146C28.9741 16.3641 29.1241 16.5838 29.3305 16.7413C29.595 16.9283 29.9098 17.0313 30.2337 17.0367H30.3161C30.898 17.0537 31.3904 17.3706 31.7171 17.8424C32.0571 18.3435 32.1934 18.9552 32.0985 19.5532H32.1021Z" fill="url(#paint1_linear_891_5258)"/>
<defs>
<linearGradient id="paint0_linear_891_5258" x1="18.2332" y1="18.0468" x2="18.2332" y2="34.3329" gradientUnits="userSpaceOnUse">
<stop offset="0.23" stop-color="#5024D1"/>
<stop offset="0.44" stop-color="#6A37E6"/>
<stop offset="0.65" stop-color="#7F46F8"/>
<stop offset="0.8" stop-color="#874CFF"/>
</linearGradient>
<linearGradient id="paint1_linear_891_5258" x1="22.1713" y1="17.0492" x2="34.4655" y2="17.0492" gradientUnits="userSpaceOnUse">
<stop offset="0.23" stop-color="#5024D1"/>
<stop offset="0.44" stop-color="#6A37E6"/>
<stop offset="0.65" stop-color="#7F46F8"/>
<stop offset="0.8" stop-color="#874CFF"/>
</linearGradient>
</defs>
</svg>
