<svg width="28" height="28" viewBox="0 0 28 28" fill="none" xmlns="http://www.w3.org/2000/svg">
<path d="M23.625 7H19.25C19.25 5.60761 18.6969 4.27226 17.7123 3.28769C16.7277 2.30312 15.3924 1.75 14 1.75C12.6076 1.75 11.2723 2.30312 10.2877 3.28769C9.30312 4.27226 8.75 5.60761 8.75 7H4.375C3.91087 7 3.46575 7.18437 3.13756 7.51256C2.80937 7.84075 2.625 8.28587 2.625 8.75V21.875C2.625 22.3391 2.80937 22.7842 3.13756 23.1124C3.46575 23.4406 3.91087 23.625 4.375 23.625H23.625C24.0891 23.625 24.5342 23.4406 24.8624 23.1124C25.1906 22.7842 25.375 22.3391 25.375 21.875V8.75C25.375 8.28587 25.1906 7.84075 24.8624 7.51256C24.5342 7.18437 24.0891 7 23.625 7ZM10.5 11.375C10.5 11.6071 10.4078 11.8296 10.2437 11.9937C10.0796 12.1578 9.85706 12.25 9.625 12.25C9.39294 12.25 9.17038 12.1578 9.00628 11.9937C8.84219 11.8296 8.75 11.6071 8.75 11.375V9.625C8.75 9.39294 8.84219 9.17038 9.00628 9.00628C9.17038 8.84219 9.39294 8.75 9.625 8.75C9.85706 8.75 10.0796 8.84219 10.2437 9.00628C10.4078 9.17038 10.5 9.39294 10.5 9.625V11.375ZM14 3.5C14.9283 3.5 15.8185 3.86875 16.4749 4.52513C17.1313 5.1815 17.5 6.07174 17.5 7H10.5C10.5 6.07174 10.8687 5.1815 11.5251 4.52513C12.1815 3.86875 13.0717 3.5 14 3.5ZM19.25 11.375C19.25 11.6071 19.1578 11.8296 18.9937 11.9937C18.8296 12.1578 18.6071 12.25 18.375 12.25C18.1429 12.25 17.9204 12.1578 17.7563 11.9937C17.5922 11.8296 17.5 11.6071 17.5 11.375V9.625C17.5 9.39294 17.5922 9.17038 17.7563 9.00628C17.9204 8.84219 18.1429 8.75 18.375 8.75C18.6071 8.75 18.8296 8.84219 18.9937 9.00628C19.1578 9.17038 19.25 9.39294 19.25 9.625V11.375Z" fill="white"/>
</svg>
