<svg width="28" height="28" viewBox="0 0 28 28" fill="none" xmlns="http://www.w3.org/2000/svg">
<path d="M24.5001 19.8333V9.33329H8.16675V19.8333H24.5001ZM24.5001 3.49996C25.1189 3.49996 25.7124 3.74579 26.15 4.18338C26.5876 4.62096 26.8334 5.21445 26.8334 5.83329V19.8333C26.8334 20.4521 26.5876 21.0456 26.15 21.4832C25.7124 21.9208 25.1189 22.1666 24.5001 22.1666H8.16675C7.54791 22.1666 6.95442 21.9208 6.51683 21.4832C6.07925 21.0456 5.83341 20.4521 5.83341 19.8333V5.83329C5.83341 5.21445 6.07925 4.62096 6.51683 4.18338C6.95442 3.74579 7.54791 3.49996 8.16675 3.49996H9.33341V1.16663H11.6667V3.49996H21.0001V1.16663H23.3334V3.49996H24.5001ZM20.4517 12.9033L15.2717 18.0833L12.1451 14.9566L13.3817 13.72L15.2717 15.61L19.2151 11.6666L20.4517 12.9033ZM3.50008 24.5H19.8334V26.8333H3.50008C2.88124 26.8333 2.28775 26.5875 1.85017 26.1499C1.41258 25.7123 1.16675 25.1188 1.16675 24.5V10.5H3.50008V24.5Z" fill="white"/>
</svg>
