<svg width="31" height="31" viewBox="0 0 31 31" fill="none" xmlns="http://www.w3.org/2000/svg">
<path d="M15.5815 4.86926C18.2512 4.86926 20.4154 7.39602 20.4154 10.5129C20.4154 12.6746 19.3744 14.552 17.8458 15.5L19.6184 16.3215L24.3355 18.5093C24.7912 18.7372 25.0187 19.1236 25.0187 19.6704V24.8656C24.9812 25.5151 24.5915 26.1205 23.9596 26.1307H7.17777C6.4564 26.068 6.09147 25.4869 6.08437 24.8656V19.6704C6.08437 19.1236 6.31181 18.7372 6.76748 18.5093L11.3138 16.3215L13.2032 15.4264C11.7374 14.4571 10.7475 12.6203 10.7475 10.513C10.7475 7.39602 12.9118 4.86926 15.5815 4.86926ZM23.3786 6.85388C24.5275 6.89752 25.438 7.39465 26.1297 8.18678C26.8949 9.14049 27.268 10.2728 27.2752 11.3993C27.2282 13.0649 26.4829 14.6418 25.1561 15.4666L30.4533 17.9282C30.8179 18.065 31 18.3839 31 18.8852V23.0547C30.9715 23.6076 30.6844 24.0724 30.1461 24.0803H26.6254V19.6704C26.5672 18.4914 26.0135 17.5384 25.0187 17.0734L21.499 15.3989C21.2255 15.2394 20.9634 15.0226 20.7128 14.7492C22.164 12.51 22.3655 9.82815 21.4302 7.46931C22.0385 7.09703 22.7222 6.85778 23.3786 6.85388ZM7.65677 6.85388C8.40808 6.86962 9.1024 7.14629 9.67278 7.53702C8.763 9.91723 9.01395 12.6008 10.3569 14.6805C10.0607 15.0222 9.75229 15.2844 9.43328 15.4667L6.05001 17.0734C5.01934 17.6386 4.48787 18.6001 4.47764 19.6704V24.0804H0.854904C0.259109 24.0289 0.00516701 23.5537 0 23.0547V18.8852C0 18.4295 0.182125 18.1106 0.546711 17.9282L5.77618 15.4323C4.41998 14.4323 3.73899 12.9337 3.72581 11.3993C3.76188 10.1848 4.13287 9.0571 4.87124 8.18678C5.64278 7.3498 6.59974 6.86274 7.65677 6.85388Z" fill="white"/>
</svg>
