<svg width="27" height="27" viewBox="0 0 27 27" fill="none" xmlns="http://www.w3.org/2000/svg">
<path d="M0 14.9708L1.85645 15.2035C2.0514 15.2264 2.23441 15.3094 2.38008 15.4409C2.52575 15.5725 2.62687 15.7462 2.66942 15.9378C2.73634 16.2791 2.82689 16.6154 2.94041 16.9442C3.00078 17.1292 3.00342 17.3282 2.94799 17.5148C2.89256 17.7014 2.78167 17.8667 2.63006 17.9888L1.16042 19.1492L2.5536 21.5105L4.29423 20.7751C4.47613 20.6948 4.67872 20.674 4.87315 20.7156C5.06758 20.7572 5.24392 20.8591 5.37706 21.0067C5.6087 21.2777 5.87969 21.5105 6.11244 21.7421C6.26011 21.8753 6.362 22.0516 6.40359 22.246C6.44518 22.4405 6.42435 22.6431 6.34408 22.825L5.64805 24.5667L8.00937 25.916L9.16867 24.4082C9.28767 24.2519 9.45095 24.1351 9.63726 24.0729C9.82357 24.0108 10.0243 24.0061 10.2133 24.0596C10.5432 24.1682 10.8787 24.2587 11.2185 24.3306C11.413 24.3674 11.5901 24.4667 11.7228 24.6135C11.8556 24.7602 11.9367 24.9464 11.9539 25.1436L12.2249 27H14.9708L15.2035 25.1436C15.2264 24.9486 15.3094 24.7656 15.4409 24.6199C15.5725 24.4742 15.7462 24.3731 15.9378 24.3306C16.2791 24.2637 16.6154 24.1731 16.9442 24.0596C17.1292 23.9992 17.3282 23.9966 17.5148 24.052C17.7014 24.1074 17.8667 24.2183 17.9888 24.3699L19.1492 25.8396L21.5105 24.4464L20.7751 22.7058C20.6948 22.5239 20.674 22.3213 20.7156 22.1269C20.7572 21.9324 20.8591 21.7561 21.0067 21.6229C21.2777 21.3902 21.5105 21.1203 21.7421 20.8876C21.8753 20.7399 22.0516 20.638 22.246 20.5964C22.4405 20.5548 22.6431 20.5757 22.825 20.6559L24.5667 21.352L25.916 18.9906L24.4082 17.8336C24.2519 17.7146 24.1351 17.5513 24.0729 17.365C24.0108 17.1787 24.0061 16.978 24.0596 16.789C24.1682 16.4591 24.2587 16.1235 24.3306 15.7837C24.3674 15.5893 24.4667 15.4122 24.6135 15.2794C24.7602 15.1466 24.9464 15.0655 25.1436 15.0484L27 14.7774V12.0315L25.1436 11.7987C24.9485 11.7758 24.7653 11.6926 24.6196 11.5609C24.474 11.4291 24.3729 11.2552 24.3306 11.0633C24.2635 10.7224 24.173 10.3865 24.0596 10.0581C23.9992 9.87306 23.9966 9.67402 24.052 9.48744C24.1074 9.30086 24.2183 9.13556 24.3699 9.01349L25.8396 7.85308L24.4464 5.49176L22.708 6.19228C22.526 6.27225 22.3234 6.2928 22.129 6.25101C21.9346 6.20923 21.7583 6.10723 21.6252 5.95952C21.3936 5.68853 21.1226 5.4569 20.8898 5.22414C20.742 5.0911 20.64 4.91475 20.5984 4.72028C20.5568 4.52581 20.5777 4.32317 20.6582 4.1413L21.3542 2.40068L18.9929 1.05135L17.8325 2.56035C17.7133 2.7164 17.55 2.83299 17.3637 2.89495C17.1774 2.95692 16.9767 2.96139 16.7879 2.9078C16.4579 2.79957 16.1223 2.70911 15.7826 2.63681C15.5882 2.60044 15.411 2.50136 15.2782 2.35475C15.1454 2.20813 15.0643 2.02205 15.0472 1.82496L14.8505 0H12.1079L11.8763 1.85645C11.8532 2.0515 11.77 2.23453 11.6382 2.38019C11.5065 2.52585 11.3327 2.62693 11.1409 2.66942C10.8 2.73648 10.4641 2.82703 10.1357 2.94041C9.95064 3.00078 9.75161 3.00342 9.56503 2.94799C9.37844 2.89256 9.21314 2.78167 9.09108 2.63006L7.93066 1.16042L5.56934 2.5536L6.30472 4.29423C6.38487 4.47624 6.40551 4.67891 6.36372 4.87334C6.32192 5.06778 6.21982 5.24406 6.07196 5.37706C5.8021 5.6087 5.56934 5.87969 5.33771 6.11244C5.20439 6.2602 5.02785 6.36214 4.83322 6.40373C4.6386 6.44532 4.43582 6.42444 4.25375 6.34408L2.51312 5.64805L1.16379 8.00937L2.67279 9.16979C2.82908 9.28873 2.94586 9.45206 3.00785 9.63843C3.06984 9.8248 3.07415 10.0255 3.02024 10.2144C2.91186 10.5443 2.82177 10.8798 2.75038 11.2196C2.7136 11.4141 2.61426 11.5912 2.46749 11.724C2.32072 11.8567 2.13457 11.9379 1.93741 11.955L0.00337489 12.226L0 14.9708ZM10.0154 12.6499C10.1626 12.0076 10.4879 11.4198 10.9539 10.9539C11.4198 10.4879 12.0076 10.1626 12.6499 10.0154C13.5893 9.77426 14.586 9.91619 15.4208 10.41C16.2555 10.9037 16.8599 11.7088 17.101 12.6482C17.3421 13.5876 17.2002 14.5843 16.7064 15.4191C16.2127 16.2538 15.4075 16.8582 14.4681 17.0993C11.7605 17.7178 9.36207 15.3193 10.0154 12.6499ZM21.1563 10.9475C21.8917 10.7935 22.3932 11.1027 22.5056 11.6053C22.6486 12.2397 22.7136 12.8892 22.699 13.5394C22.699 17.6795 19.9138 21.3542 15.8906 22.3988C15.6462 22.4485 15.392 22.4046 15.1785 22.2756C14.965 22.1467 14.8078 21.9422 14.738 21.7028L14.2354 19.8452C14.0802 19.3043 14.4288 18.8006 14.9314 18.6466C16.052 18.3403 17.041 17.6749 17.7469 16.7523C18.4527 15.8297 18.8363 14.701 18.8388 13.5394C18.8392 13.1755 18.8015 12.8126 18.7264 12.4565C18.6953 12.332 18.6898 12.2024 18.7102 12.0757C18.7306 11.9489 18.7765 11.8277 18.8452 11.7192C18.9138 11.6107 19.0038 11.5173 19.1095 11.4446C19.2153 11.3718 19.3348 11.3213 19.4606 11.2961L21.1563 10.9475ZM7.03561 7.07946C7.88708 6.22215 8.8996 5.5416 10.015 5.07692C11.1303 4.61225 12.3266 4.37262 13.5349 4.37181C14.7817 4.36242 16.0169 4.61191 17.1623 5.10449C18.3077 5.59708 19.3385 6.32204 20.1893 7.23351C20.361 7.41968 20.4531 7.6656 20.446 7.91876C20.4388 8.17193 20.333 8.41226 20.1511 8.58846L18.7624 9.90292C18.6726 9.99152 18.5658 10.061 18.4485 10.1073C18.3311 10.1535 18.2056 10.1755 18.0795 10.1719C17.9535 10.1683 17.8294 10.1393 17.7149 10.0865C17.6003 10.0337 17.4977 9.95823 17.413 9.86469C16.9249 9.34647 16.3371 8.93221 15.6849 8.64679C15.0326 8.36137 14.3295 8.21068 13.6176 8.20375C12.9057 8.19682 12.1997 8.33379 11.5421 8.60646C10.8844 8.87912 10.2886 9.28186 9.79048 9.79048C9.70326 9.8815 9.59853 9.95393 9.48258 10.0034C9.36664 10.0529 9.24188 10.0784 9.11582 10.0784C8.98976 10.0784 8.865 10.0529 8.74905 10.0034C8.63311 9.95393 8.52837 9.8815 8.44116 9.79048L7.09183 8.44116C6.98752 8.36271 6.902 8.26201 6.8415 8.14636C6.781 8.03071 6.74704 7.90303 6.74208 7.77261C6.73713 7.64219 6.76131 7.5123 6.81286 7.3924C6.86441 7.2725 6.94204 7.16559 7.04011 7.07946H7.03561ZM4.59895 11.4513C4.62646 11.3266 4.67837 11.2086 4.75168 11.104C4.82499 10.9995 4.91827 10.9104 5.02613 10.8421C5.13398 10.7737 5.2543 10.7274 5.38014 10.7057C5.50598 10.6841 5.63487 10.6875 5.75937 10.7159L7.42916 11.1398C8.16342 11.3332 8.47264 11.837 8.35682 12.3396C8.24636 12.7293 8.19445 13.1333 8.20278 13.5382C8.20595 14.6782 8.57638 15.7867 9.25914 16.6996C9.94191 17.6124 10.9007 18.281 11.9933 18.6061C12.4959 18.7612 12.8445 19.3032 12.6904 19.8058L12.1518 21.6634C12.1197 21.7834 12.0641 21.8957 11.9881 21.9939C11.9122 22.0921 11.8174 22.1742 11.7094 22.2355C11.6014 22.2967 11.4823 22.3358 11.359 22.3505C11.2357 22.3652 11.1108 22.3553 10.9914 22.3212C7.08396 21.2384 4.37631 17.5986 4.37631 13.5394C4.37306 12.837 4.44925 12.1365 4.60345 11.4513H4.59895Z" fill="white"/>
</svg>
