<svg width="32" height="32" viewBox="0 0 32 32" fill="none" xmlns="http://www.w3.org/2000/svg">
<path d="M6.66676 8.00004H25.3334C26.0668 8.00004 26.6668 7.40004 26.6668 6.66671C26.6668 5.93337 26.0668 5.33337 25.3334 5.33337H6.66676C5.93343 5.33337 5.33343 5.93337 5.33343 6.66671C5.33343 7.40004 5.93343 8.00004 6.66676 8.00004ZM26.8801 10.4C26.7601 9.78671 26.2134 9.33337 25.5734 9.33337H6.42676C5.78677 9.33337 5.2401 9.78671 5.1201 10.4L3.78676 17.0667C3.62676 17.8934 4.25343 18.6667 5.09343 18.6667H5.33343V25.3334C5.33343 26.0667 5.93343 26.6667 6.66676 26.6667H17.3334C18.0668 26.6667 18.6668 26.0667 18.6668 25.3334V18.6667H24.0001V25.3334C24.0001 26.0667 24.6001 26.6667 25.3334 26.6667C26.0668 26.6667 26.6668 26.0667 26.6668 25.3334V18.6667H26.9068C27.7468 18.6667 28.3734 17.8934 28.2134 17.0667L26.8801 10.4ZM16.0001 24H8.0001V18.6667H16.0001V24Z" fill="white"/>
</svg>
